<?xml version="1.0" encoding="UTF-8" standalone="no"?>
<!-- Created with Inkscape (http://www.inkscape.org/) -->

<svg
   xmlns:dc="http://purl.org/dc/elements/1.1/"
   xmlns:cc="http://creativecommons.org/ns#"
   xmlns:rdf="http://www.w3.org/1999/02/22-rdf-syntax-ns#"
   xmlns:svg="http://www.w3.org/2000/svg"
   xmlns="http://www.w3.org/2000/svg"
   xmlns:sodipodi="http://sodipodi.sourceforge.net/DTD/sodipodi-0.dtd"
   xmlns:inkscape="http://www.inkscape.org/namespaces/inkscape"
   width="177.16534"
   height="177.16534"
   id="svg2"
   version="1.1"
   inkscape:version="0.48.5 r10040"
   sodipodi:docname="New document 1">
  <defs
     id="defs4" />
  <sodipodi:namedview
     id="base"
     pagecolor="#ffffff"
     bordercolor="#666666"
     borderopacity="1.0"
     inkscape:pageopacity="0.0"
     inkscape:pageshadow="2"
     inkscape:zoom="2.8"
     inkscape:cx="5.1293317"
     inkscape:cy="114.45484"
     inkscape:document-units="px"
     inkscape:current-layer="layer2"
     showgrid="false"
     units="cm"
     inkscape:window-width="1440"
     inkscape:window-height="789"
     inkscape:window-x="0"
     inkscape:window-y="0"
     inkscape:window-maximized="1" />
  <metadata
     id="metadata7">
    <rdf:RDF>
      <cc:Work
         rdf:about="">
        <dc:format>image/svg+xml</dc:format>
        <dc:type
           rdf:resource="http://purl.org/dc/dcmitype/StillImage" />
        <dc:title></dc:title>
      </cc:Work>
    </rdf:RDF>
  </metadata>
  <g
     inkscape:groupmode="layer"
     id="layer2"
     inkscape:label="Monserrate">
    <path
       style="fill:none;stroke:#000000;stroke-width:2;stroke-linecap:butt;stroke-linejoin:miter;stroke-opacity:1;stroke-miterlimit:4;stroke-dasharray:none"
       d="m 85.703772,107.74656 18.214288,0 3.57143,1.42858 44.28572,0.71428 -0.35715,-2.14286 -1.78571,-1.07142 0.35714,-9.285719 -28.57143,-0.714285 -0.35714,2.142857 -15.71429,-0.714286 0.35714,-3.928571 33.57144,1.071428 -0.71429,-5 -7.5,0 -2.14286,-3.571428 -22.5,-0.714286 0.35715,-21.785715 -1.78572,-2.142857 0,-3.928571 -1.42857,-2.142857 -0.35715,-6.428572 -3.214283,-8.928571 -2.5,7.857143 -0.357143,8.214285 -2.142857,1.785715 0,2.857143 -1.428572,3.571428 -0.714286,14.642857 2.5,5 -12.857142,-0.357142 -2.142858,1.428571 -25.714285,-1.785714 1.071428,7.857143 19.642857,1.428571 0,1.428571 5.357143,0.714286 1.428572,3.928572 -23.214286,-1.071429 0,-1.785714 -16.071429,0.357143 -22.857143,-0.357143 -10.714285,3.214285 0,8.928572 9.642857,-2.14286 23.571428,0 0,2.85715 -18.928571,0.35714 -8.571428,2.14286 -1.071429,10.71428 14.642857,-1.07143 9.285714,-1.07143 2.5,-3.57142 13.928572,-8.21429 21.071428,0 -13.928571,5.35714 -13.928572,2.14286 -8.214285,4.28571 -0.357143,2.85715 9.285714,-4.64286 11.428572,-1.42857 16.071428,-4.64286 6.785715,-0.71428 z"
       id="path3051"
       inkscape:connector-curvature="0" />
    <path
       style="fill:none;stroke:#000000;stroke-width:2;stroke-linecap:butt;stroke-linejoin:miter;stroke-opacity:1;stroke-miterlimit:4;stroke-dasharray:none"
       d="m 54.632344,83.46085 11.071428,-3.928572 26.785715,0.357143"
       id="path3053"
       inkscape:connector-curvature="0" />
    <path
       style="fill:none;stroke:#000000;stroke-width:2;stroke-linecap:butt;stroke-linejoin:miter;stroke-opacity:1;stroke-miterlimit:4;stroke-dasharray:none"
       d="m 106.77521,80.96085 28.21428,1.428571 3.57143,7.5"
       id="path3055"
       inkscape:connector-curvature="0" />
    <path
       style="fill:none;stroke:#000000;stroke-width:2;stroke-linecap:butt;stroke-linejoin:miter;stroke-opacity:1;stroke-miterlimit:4;stroke-dasharray:none"
       d="M 148.91806,97.032278 138.56092,93.817993"
       id="path3057"
       inkscape:connector-curvature="0" />
    <path
       style="fill:none;stroke:#000000;stroke-width:2;stroke-linecap:butt;stroke-linejoin:miter;stroke-opacity:1;stroke-miterlimit:4;stroke-dasharray:none"
       d="m 54.900201,86.050136 -17.410715,-0.446429 -4.642857,2.142857 0,3.571429 -13.214285,4.642857"
       id="path3061"
       inkscape:connector-curvature="0"
       sodipodi:nodetypes="ccccc" />
    <path
       style="fill:none;stroke:#000000;stroke-width:2;stroke-linecap:butt;stroke-linejoin:miter;stroke-opacity:1;stroke-miterlimit:4;stroke-dasharray:none"
       d="m 78.203772,89.175136 3.571429,-1.785715 17.142857,0 2.142862,0.714286 -0.71429,3.928571 -18.928572,-0.357142 -2.5,0.714285 z"
       id="path3063"
       inkscape:connector-curvature="0" />
    <path
       style="fill:none;stroke:#000000;stroke-width:2;stroke-linecap:butt;stroke-linejoin:miter;stroke-opacity:1;stroke-miterlimit:4;stroke-dasharray:none"
       d="m 100.34663,74.175135 0,6.071429"
       id="path3065"
       inkscape:connector-curvature="0" />
    <path
       style="fill:none;stroke:#000000;stroke-width:2;stroke-linecap:butt;stroke-linejoin:miter;stroke-opacity:1;stroke-miterlimit:4;stroke-dasharray:none"
       d="m 99.72163,60.514421 1.69643,0"
       id="path3067"
       inkscape:connector-curvature="0" />
    <path
       style="fill:none;stroke:#000000;stroke-width:2;stroke-linecap:butt;stroke-linejoin:miter;stroke-opacity:1;stroke-miterlimit:4;stroke-dasharray:none"
       d="m 100.70377,51.407278 -0.0893,0.625"
       id="path3069"
       inkscape:connector-curvature="0" />
    <path
       style="fill:none;stroke:#000000;stroke-width:2;stroke-linecap:butt;stroke-linejoin:miter;stroke-opacity:1;stroke-miterlimit:4;stroke-dasharray:none"
       d="m 109.09663,105.15728 0,-2.41072 1.96429,-0.0893 0.26786,2.85715 z"
       id="path3071"
       inkscape:connector-curvature="0" />
    <path
       style="fill:none;stroke:#000000;stroke-width:2;stroke-linecap:butt;stroke-linejoin:miter;stroke-opacity:1;stroke-miterlimit:4;stroke-dasharray:none"
       d="m 114.72163,102.56799 0.17858,2.76786 1.875,-0.0893 0.0893,-2.58929 z"
       id="path3073"
       inkscape:connector-curvature="0" />
    <path
       style="fill:none;stroke:#000000;stroke-width:2;stroke-linecap:butt;stroke-linejoin:miter;stroke-opacity:1;stroke-miterlimit:4;stroke-dasharray:none"
       d="m 126.15021,106.05014 4.82142,0.17857 -0.17857,-4.28572 -0.89285,-1.16071 -1.42858,-0.44643 -1.25,0.71429 -1.07142,1.25 z"
       id="path3075"
       inkscape:connector-curvature="0" />
    <path
       style="fill:none;stroke:#000000;stroke-width:2;stroke-linecap:butt;stroke-linejoin:miter;stroke-opacity:1;stroke-miterlimit:4;stroke-dasharray:none"
       d="m 133.47163,106.49656 4.73215,0 0.0893,-4.10714 -0.98214,-1.16071 -1.07143,-0.44643 -2.23214,0.71428 -0.26786,0.89286 z"
       id="path3077"
       inkscape:connector-curvature="0" />
    <path
       style="fill:none;stroke:#000000;stroke-width:2;stroke-linecap:butt;stroke-linejoin:miter;stroke-opacity:1;stroke-miterlimit:4;stroke-dasharray:none"
       d="m 141.06092,106.58585 4.73214,0.17857 -0.26785,-4.19643 -0.80358,-1.25 -1.25,-0.53571 -1.60714,0.53571 -0.98214,1.25 z"
       id="path3079"
       inkscape:connector-curvature="0" />
    <path
       style="fill:none;stroke:#000000;stroke-width:2;stroke-linecap:butt;stroke-linejoin:miter;stroke-opacity:1;stroke-miterlimit:4;stroke-dasharray:none"
       d="m 122.4895,94.353707 -0.0893,-3.571429 2.32142,0 -0.0893,3.482143"
       id="path3081"
       inkscape:connector-curvature="0"
       sodipodi:nodetypes="cccc" />
    <path
       style="fill:none;stroke:#000000;stroke-width:2;stroke-linecap:butt;stroke-linejoin:miter;stroke-opacity:1;stroke-miterlimit:4;stroke-dasharray:none"
       d="m 132.75735,91.496564 -0.0893,0.625"
       id="path3083"
       inkscape:connector-curvature="0" />
    <path
       style="fill:none;stroke:#000000;stroke-width:2;stroke-linecap:butt;stroke-linejoin:miter;stroke-opacity:1;stroke-miterlimit:4;stroke-dasharray:none"
       d="m 134.36449,91.496564 0.0893,0.803571"
       id="path3085"
       inkscape:connector-curvature="0" />
    <path
       style="fill:none;stroke:#000000;stroke-width:2;stroke-linecap:butt;stroke-linejoin:miter;stroke-opacity:1;stroke-miterlimit:4;stroke-dasharray:none"
       d="m 136.15021,91.317993 -0.0893,1.071428"
       id="path3087"
       inkscape:connector-curvature="0" />
    <path
       style="fill:none;stroke:#000000;stroke-width:2;stroke-linecap:butt;stroke-linejoin:miter;stroke-opacity:1;stroke-miterlimit:4;stroke-dasharray:none"
       d="m 113.47163,93.907278 -0.0893,-3.214285 2.85714,-0.357143 0,3.928572"
       id="path3089"
       inkscape:connector-curvature="0"
       sodipodi:nodetypes="cccc" />
    <path
       style="fill:none;stroke:#000000;stroke-width:2;stroke-linecap:butt;stroke-linejoin:miter;stroke-opacity:1;stroke-miterlimit:4;stroke-dasharray:none"
       d="m 107.40021,94.08585 0.0893,-3.75 -1.16071,-0.178572"
       id="path3091"
       inkscape:connector-curvature="0"
       sodipodi:nodetypes="ccc" />
    <path
       style="fill:none;stroke:#000000;stroke-width:2;stroke-linecap:butt;stroke-linejoin:miter;stroke-opacity:1;stroke-miterlimit:4;stroke-dasharray:none"
       d="m 87.22163,91.675136 -0.08929,-2.410715 -4.464286,-0.267857 0,2.410715"
       id="path3093"
       inkscape:connector-curvature="0"
       sodipodi:nodetypes="cccc" />
    <path
       style="fill:none;stroke:#000000;stroke-width:2;stroke-linecap:butt;stroke-linejoin:miter;stroke-opacity:1;stroke-miterlimit:4;stroke-dasharray:none"
       d="m 94.810915,92.032279 0,-2.410715 3.660715,0.08929 1.78571,0.714285"
       id="path3095"
       inkscape:connector-curvature="0"
       sodipodi:nodetypes="cccc" />
    <path
       style="fill:none;stroke:#000000;stroke-width:2;stroke-linecap:butt;stroke-linejoin:miter;stroke-opacity:1;stroke-miterlimit:4;stroke-dasharray:none"
       d="m 67.757344,92.300136 0.267857,-3.482143 -2.946429,-0.267858 0.357143,3.482143"
       id="path3097"
       inkscape:connector-curvature="0"
       sodipodi:nodetypes="cccc" />
    <path
       style="fill:none;stroke:#000000;stroke-width:2;stroke-linecap:butt;stroke-linejoin:miter;stroke-opacity:1;stroke-miterlimit:4;stroke-dasharray:none"
       d="m 63.828772,100.06799 0,5 10.535715,0.17857 -0.08929,-4.91071 z"
       id="path3099"
       inkscape:connector-curvature="0" />
    <path
       style="fill:none;stroke:#000000;stroke-width:2;stroke-linecap:butt;stroke-linejoin:miter;stroke-opacity:1;stroke-miterlimit:4;stroke-dasharray:none"
       d="m 78.650201,100.69299 c 0,2.85715 -0.178572,4.64286 -0.178572,4.64286 l 3.839286,0.35714 0.08929,-4.82143 z"
       id="path3101"
       inkscape:connector-curvature="0" />
    <path
       style="fill:none;stroke:#000000;stroke-width:2;stroke-linecap:butt;stroke-linejoin:miter;stroke-opacity:1;stroke-miterlimit:4;stroke-dasharray:none"
       d="m 46.239487,106.94299 0.267857,2.05357 3.214285,-0.35714 0.08929,-2.05357 z"
       id="path3103"
       inkscape:connector-curvature="0" />
    <path
       style="fill:#ff0000;stroke:#000000;stroke-width:2;stroke-linecap:butt;stroke-linejoin:miter;stroke-opacity:1;stroke-miterlimit:4;stroke-dasharray:none"
       d="m 46.864487,96.675135 -0.08929,4.107145 2.946428,0 0.08929,-4.285716"
       id="path3105"
       inkscape:connector-curvature="0"
       sodipodi:nodetypes="cccc" />
    <path
       style="fill:none;stroke:#000000;stroke-width:2;stroke-linecap:butt;stroke-linejoin:miter;stroke-opacity:1;stroke-miterlimit:4;stroke-dasharray:none"
       d="m 9.5430582,102.74656 2.6785718,-1.96428 4.821428,-0.71429 5.178571,-0.892855 20.089286,0.178572 0.08929,-2.767857"
       id="path3107"
       inkscape:connector-curvature="0" />
    <path
       style="fill:none;stroke:#000000;stroke-width:2;stroke-linecap:butt;stroke-linejoin:miter;stroke-opacity:1;stroke-miterlimit:4;stroke-dasharray:none"
       d="m 10.168058,108.72871 3.928572,0.53571 0.803571,2.32143"
       id="path3109"
       inkscape:connector-curvature="0" />
    <path
       style="fill:none;stroke:#000000;stroke-width:2;stroke-linecap:butt;stroke-linejoin:miter;stroke-opacity:1;stroke-miterlimit:4;stroke-dasharray:none"
       d="m 18.114486,112.92514 0.08929,1.96428 2.946429,-0.53571 13.571428,-0.625 0.08929,-2.14286 -15,0.89286 z"
       id="path3111"
       inkscape:connector-curvature="0" />
    <path
       style="fill:none;stroke:#000000;stroke-width:2;stroke-linecap:butt;stroke-linejoin:miter;stroke-opacity:1;stroke-miterlimit:4;stroke-dasharray:none"
       d="m 151.59663,109.62156 6.16072,5.17858 11.96428,1.51785 0.89286,8.21429 -22.76786,-2.85714 -30.17857,1.16071 -24.82143,3.125 -0.892858,-4.375 -25.982143,6.33929 -35.089285,0.44642 -17.053572,0.89286 -0.178571,-6.875"
       id="path3113"
       inkscape:connector-curvature="0" />
    <path
       style="fill:none;stroke:#000000;stroke-width:2;stroke-linecap:butt;stroke-linejoin:miter;stroke-opacity:1;stroke-miterlimit:4;stroke-dasharray:none"
       d="m 35.257344,87.21085 19.642857,0.446428"
       id="path3115"
       inkscape:connector-curvature="0" />
    <path
       style="fill:none;stroke:#000000;stroke-width:2;stroke-linecap:butt;stroke-linejoin:miter;stroke-opacity:1;stroke-miterlimit:4;stroke-dasharray:none"
       d="M 55.168058,91.050135 33.114486,90.33585"
       id="path3117"
       inkscape:connector-curvature="0" />
    <path
       style="fill:#ffffff;fill-opacity:1;stroke:#000000;stroke-width:0.26785713;stroke-linecap:round;stroke-linejoin:round;stroke-miterlimit:4;stroke-opacity:1;stroke-dasharray:none"
       d=""
       id="path3121"
       inkscape:connector-curvature="0" />
    <path
       style="fill:none;stroke:#000000;stroke-width:2;stroke-linecap:butt;stroke-linejoin:miter;stroke-opacity:1;stroke-miterlimit:4;stroke-dasharray:none"
       d="m 105.5252,93.996564 0.80358,-8.75"
       id="path3123"
       inkscape:connector-curvature="0" />
    <path
       style="fill:#000000;fill-opacity:1;stroke:#000000;stroke-width:2;stroke-linecap:round;stroke-linejoin:round;stroke-miterlimit:4;stroke-opacity:1;stroke-dasharray:none"
       d="m 47.368776,98.472424 c 0.03403,-0.969866 0.06658,-1.768399 0.07233,-1.774518 0.0058,-0.0061 0.428637,-0.03992 0.939744,-0.07512 l 0.929287,-0.064 -0.05835,1.01262 c -0.03209,0.556941 -0.05853,1.384272 -0.05875,1.838513 l -4.06e-4,0.825891 -0.942869,0 -0.942869,0 0.06188,-1.763391 z"
       id="path3125"
       inkscape:connector-curvature="0" />
    <path
       style="fill:#000000;fill-opacity:1;stroke:#000000;stroke-width:2;stroke-linecap:round;stroke-linejoin:round;stroke-miterlimit:4;stroke-opacity:1;stroke-dasharray:none"
       d="m 38.210495,98.360817 c 0,-0.04911 0.06027,-0.08929 0.133928,-0.08929 0.07441,0 0.133929,-0.07936 0.133929,-0.178571 0,-0.09921 0.05952,-0.178572 0.133929,-0.178572 0.08928,0 0.133928,0.08929 0.133928,0.267857 0,0.238096 -0.02976,0.267857 -0.267857,0.267857 -0.147321,0 -0.267857,-0.04018 -0.267857,-0.08929 z"
       id="path3127"
       inkscape:connector-curvature="0" />
    <path
       style="fill:#000000;fill-opacity:1;stroke:#000000;stroke-width:2;stroke-linecap:round;stroke-linejoin:round;stroke-miterlimit:4;stroke-opacity:1;stroke-dasharray:none"
       d="m 85.375674,90.261151 c 0.135044,-0.02046 0.356026,-0.02046 0.491071,0 0.135045,0.02046 0.02455,0.0372 -0.245536,0.0372 -0.270089,0 -0.38058,-0.01674 -0.245535,-0.0372 z"
       id="path3129"
       inkscape:connector-curvature="0" />
    <path
       style="fill:#000000;fill-opacity:1;stroke:#000000;stroke-width:2;stroke-linecap:round;stroke-linejoin:round;stroke-miterlimit:4;stroke-opacity:1;stroke-dasharray:none"
       d="m 96.067638,90.688792 c 0,-0.04551 -0.07031,-0.101113 -0.15625,-0.123571 -0.117581,-0.03073 -0.106533,-0.0434 0.04464,-0.05119 0.110491,-0.0057 0.200893,-0.05054 0.200893,-0.09964 0,-0.04911 0.100446,-0.08929 0.223214,-0.08929 0.122768,0 0.223214,0.03723 0.223214,0.08274 0,0.04551 0.07031,0.101114 0.15625,0.123572 0.14881,0.03889 0.14881,0.04133 0,0.05119 -0.08594,0.0057 -0.15625,0.05054 -0.15625,0.09964 0,0.04911 -0.120536,0.08929 -0.267857,0.08929 -0.147321,0 -0.267857,-0.03723 -0.267857,-0.08274 z"
       id="path3131"
       inkscape:connector-curvature="0" />
    <path
       style="fill:#000000;fill-opacity:1;stroke:#000000;stroke-width:2;stroke-linecap:round;stroke-linejoin:round;stroke-miterlimit:4;stroke-opacity:1;stroke-dasharray:none"
       d="m 96.625674,91.419056 -1.272322,-0.02743 0,-0.622548 c 0,-0.619952 0.001,-0.622543 0.245536,-0.621182 0.344156,0.0019 0.543783,0.136756 0.297726,0.201101 -0.243318,0.06363 -0.237358,0.287232 0.01232,0.462112 0.251984,0.176496 0.503384,0.176064 0.859273,-0.0015 0.318699,-0.158988 0.351775,-0.277627 0.125325,-0.449527 -0.133774,-0.101549 -0.04396,-0.11902 0.624384,-0.121451 0.692331,-0.0025 0.874125,0.03413 1.607142,0.323977 0.45458,0.179748 0.836833,0.334045 0.849451,0.342882 0.01262,0.0088 -0.0024,0.143019 -0.03348,0.298184 l -0.05642,0.282118 -0.993303,-0.01967 c -0.546317,-0.01082 -1.565849,-0.03201 -2.265625,-0.04709 z"
       id="path3133"
       inkscape:connector-curvature="0" />
    <path
       style="fill:#000000;fill-opacity:1;stroke:#000000;stroke-width:2;stroke-linecap:round;stroke-linejoin:round;stroke-miterlimit:4;stroke-opacity:1;stroke-dasharray:none"
       d="m 78.566578,92.892067 c -5.83e-4,-0.01228 -0.197299,-0.90625 -0.437147,-1.986607 -0.239848,-1.080358 -0.430219,-1.969843 -0.423047,-1.976634 0.0072,-0.0068 0.906664,-0.4588 1.99887,-1.004464 l 1.985831,-0.992117 8.642888,0 8.642886,0 1.201641,0.401933 c 0.6609,0.221063 1.2456,0.418291 1.29933,0.438285 0.0979,0.03644 -0.66921,4.537853 -0.79474,4.663377 -0.0322,0.03215 -4.368374,-0.02319 -9.636058,-0.122977 l -9.577608,-0.181428 -1.383929,0.390675 c -1.321691,0.373106 -1.516514,0.420558 -1.518917,0.369957 z m 3.234476,-1.674107 0.427298,0 0,-1.352707 0,-1.352708 0.870536,0.054 c 0.478795,0.0297 1.684152,0.102559 2.678571,0.16191 l 1.808036,0.10791 5.36e-4,0.498834 c 2.68e-4,0.274358 0.0261,0.827175 0.05734,1.228483 l 0.05681,0.729649 0.72391,0.04899 c 0.39815,0.02694 1.899133,0.06606 3.335517,0.08693 l 2.611607,0.03794 0,-1.163153 0,-1.163153 2.106004,0.06557 2.106003,0.06557 0.835739,0.34005 0.835739,0.34005 0.0907,-0.460835 c 0.0499,-0.253459 0.11495,-0.602074 0.14462,-0.774701 l 0.0539,-0.313866 -0.881125,-0.288812 -0.881125,-0.288813 -8.45623,0 -8.45623,0 -1.539187,0.768973 c -0.846553,0.422935 -1.553894,0.782508 -1.57187,0.799052 -0.02826,0.02601 0.386345,2.046668 0.477868,2.328977 0.02267,0.06993 0.366547,0.0063 1.085452,-0.200893 0.578747,-0.166788 1.244551,-0.303251 1.479565,-0.303251 z m 4.948892,-0.245536 c -0.03044,-0.184152 -0.05579,-0.540569 -0.05633,-0.792039 l -9.83e-4,-0.457217 -0.513393,-0.0534 c -0.282366,-0.02937 -1.085937,-0.08038 -1.785714,-0.11335 l -1.272322,-0.05995 0,0.855089 0,0.855089 0.290179,0.03601 c 0.159598,0.01981 0.988516,0.04244 1.842039,0.0503 l 1.551861,0.01429 -0.05534,-0.334821 z m 10.082998,-0.647322 c 0,-0.150793 -0.05952,-0.178571 -0.382653,-0.178571 -0.210459,0 -0.382653,0.03322 -0.382653,0.07382 0,0.0406 0.112777,0.05727 0.250614,0.03704 0.156889,-0.02303 0.294543,0.01615 0.368076,0.104749 0.14739,0.177594 0.146616,0.17779 0.146616,-0.03704 z m 1.621227,-0.143229 c -0.02967,-0.02967 -0.106679,-0.03284 -0.171131,-0.007 -0.07123,0.0285 -0.05007,0.04966 0.05394,0.05394 0.09412,0.0039 0.146857,-0.01723 0.117188,-0.0469 l 0,0 z"
       id="path3135"
       inkscape:connector-curvature="0" />
    <path
       style="fill:#000000;fill-opacity:1;stroke:#000000;stroke-width:2;stroke-linecap:round;stroke-linejoin:round;stroke-miterlimit:4;stroke-opacity:1;stroke-dasharray:none"
       d="m 83.723888,91.063045 -0.424107,-0.03344 0,-0.676842 0,-0.676843 1.138393,0.05901 c 0.626116,0.03246 1.34933,0.08271 1.607142,0.111665 l 0.46875,0.05265 0,0.335695 c 0,0.184632 0.02511,0.461252 0.0558,0.614712 l 0.0558,0.279018 -1.23884,-0.01609 c -0.681361,-0.0089 -1.429687,-0.03114 -1.662946,-0.04954 z m 2.299107,-0.782585 c 0,-0.143024 -0.069,-0.184228 -0.346587,-0.206984 -0.384454,-0.03152 -0.554158,0.07524 -0.469657,0.295441 0.04189,0.109163 0.149874,0.138294 0.435963,0.117609 0.311592,-0.02253 0.380281,-0.05975 0.380281,-0.206066 z"
       id="path3137"
       inkscape:connector-curvature="0" />
    <path
       style="fill:#000000;fill-opacity:1;stroke:#000000;stroke-width:2;stroke-linecap:round;stroke-linejoin:round;stroke-miterlimit:4;stroke-opacity:1;stroke-dasharray:none"
       d="m 66.079103,91.851935 c -0.08302,-0.05259 -0.164462,-0.485957 -0.252856,-1.345479 -0.07172,-0.697347 -0.111914,-1.286382 -0.08933,-1.308967 0.02258,-0.02259 0.397531,-0.0091 0.833213,0.02988 l 0.79215,0.07095 -0.01868,0.848214 c -0.01027,0.466518 -0.0433,1.059152 -0.07339,1.316964 l -0.05471,0.46875 -0.506968,-0.0014 c -0.278833,-7.52e-4 -0.562077,-0.03628 -0.629432,-0.07894 z"
       id="path3139"
       inkscape:connector-curvature="0" />
    <path
       style="fill:#000000;fill-opacity:1;stroke:#000000;stroke-width:2;stroke-linecap:round;stroke-linejoin:round;stroke-miterlimit:4;stroke-opacity:1;stroke-dasharray:none"
       d="m 68.567638,104.60624 c -1.645089,-0.0328 -3.262277,-0.0653 -3.59375,-0.0722 l -0.602679,-0.0125 0,-1.95849 0,-1.95848 0.78125,0.0391 c 0.429688,0.0215 2.528362,0.0819 4.66372,0.13411 2.135359,0.0522 3.887665,0.10234 3.894014,0.11133 0.0063,0.009 0.03498,0.87013 0.06363,1.91366 l 0.05209,1.89732 -1.133601,-0.0171 c -0.62348,-0.009 -2.479583,-0.0439 -4.124672,-0.0768 z"
       id="path3141"
       inkscape:connector-curvature="0" />
    <path
       style="fill:#000000;fill-opacity:1;stroke:#000000;stroke-width:2;stroke-linecap:round;stroke-linejoin:round;stroke-miterlimit:4;stroke-opacity:1;stroke-dasharray:none"
       d="m 79.996209,104.9331 -0.9375,-0.0991 0.07988,-1.77674 0.07988,-1.77673 1.294532,0.0559 c 0.711993,0.0307 1.306492,0.0679 1.32111,0.0825 0.01462,0.0146 0.0026,0.83921 -0.02665,1.83243 l -0.05323,1.80585 -0.410261,-0.0125 c -0.225643,-0.007 -0.832136,-0.0571 -1.347761,-0.1116 z"
       id="path3143"
       inkscape:connector-curvature="0" />
    <path
       style="fill:#000000;fill-opacity:1;stroke:#000000;stroke-width:2;stroke-linecap:round;stroke-linejoin:round;stroke-miterlimit:4;stroke-opacity:1;stroke-dasharray:none"
       d="m 46.920558,107.95929 c -0.03312,-0.22083 -0.0388,-0.43617 -0.01262,-0.47853 0.02618,-0.0423 0.360094,-0.10445 0.742038,-0.13799 0.381945,-0.0335 0.895338,-0.0837 1.140874,-0.11158 l 0.446429,-0.0506 -0.02979,0.48708 -0.02979,0.48708 -0.952355,0.10316 c -1.32445,0.14347 -1.235442,0.16384 -1.304792,-0.29861 z"
       id="path3145"
       inkscape:connector-curvature="0" />
    <path
       style="fill:#000000;fill-opacity:1;stroke:#000000;stroke-width:2;stroke-linecap:round;stroke-linejoin:round;stroke-miterlimit:4;stroke-opacity:1;stroke-dasharray:none"
       d="m 14.894848,109.90389 -0.38971,-1.14102 -0.446429,-0.0589 c -0.245535,-0.0324 -0.808035,-0.10899 -1.25,-0.17017 l -0.803571,-0.11125 3.526786,-0.78729 3.526785,-0.78728 11.450893,-0.003 11.450893,-0.002 0,0.8831 0,0.8831 -1.71875,0.0551 c -0.945313,0.0303 -5.113839,0.11745 -9.263393,0.19365 l -7.544643,0.13856 -3.928571,0.98037 c -2.160715,0.53921 -3.994273,1.00011 -4.074575,1.02422 -0.117414,0.0353 -0.222318,-0.17959 -0.535715,-1.09718 l 0,0 z"
       id="path3147"
       inkscape:connector-curvature="0" />
    <path
       style="fill:#000000;fill-opacity:1;stroke:#000000;stroke-width:2;stroke-linecap:round;stroke-linejoin:round;stroke-miterlimit:4;stroke-opacity:1;stroke-dasharray:none"
       d="m 18.704496,113.8403 c -0.03396,-0.22645 -0.02842,-0.44194 0.01231,-0.47885 0.272544,-0.24699 1.671047,-0.37764 8.126969,-0.75924 3.741605,-0.22116 6.935802,-0.40216 7.098214,-0.40223 l 0.295296,-1.2e-4 -0.03034,0.48692 -0.03034,0.48693 -0.371449,0.0453 c -0.204296,0.0249 -3.155493,0.16921 -6.558215,0.32062 -5.943624,0.26446 -6.929965,0.34382 -8.289824,0.66701 -0.168096,0.0399 -0.198246,-0.004 -0.252622,-0.36638 z"
       id="path3149"
       inkscape:connector-curvature="0" />
    <path
       style="fill:#000000;fill-opacity:1;stroke:#000000;stroke-width:2;stroke-linecap:round;stroke-linejoin:round;stroke-miterlimit:4;stroke-opacity:1;stroke-dasharray:none"
       d="m 143.20303,106.12438 c -0.73661,-0.0341 -1.40471,-0.0671 -1.48467,-0.0735 -0.12608,-0.01 -0.154,-0.23007 -0.21036,-1.6579 l -0.065,-1.64638 0.37653,-0.4821 c 0.3342,-0.42792 0.44645,-0.50462 0.99878,-0.68251 l 0.62226,-0.20041 0.46158,0.18812 c 0.38636,0.15747 0.51386,0.27245 0.78245,0.70556 0.31202,0.50315 0.32256,0.54929 0.38215,1.67201 0.0337,0.63502 0.0857,1.4057 0.11557,1.71262 l 0.0543,0.55804 -0.34715,-0.0158 c -0.19094,-0.009 -0.94983,-0.0437 -1.68644,-0.0778 z"
       id="path3151"
       inkscape:connector-curvature="0" />
    <path
       style="fill:#000000;fill-opacity:1;stroke:#000000;stroke-width:2;stroke-linecap:round;stroke-linejoin:round;stroke-miterlimit:4;stroke-opacity:1;stroke-dasharray:none"
       d="m 134.08221,105.34742 c 0.0297,-0.33147 0.0775,-1.04464 0.1061,-1.58482 0.0286,-0.54018 0.0939,-1.17307 0.14503,-1.40643 l 0.0929,-0.42429 0.89142,-0.27694 c 0.86609,-0.26907 0.90197,-0.27289 1.26337,-0.13446 0.22747,0.0871 0.51937,0.31394 0.75142,0.58387 l 0.37947,0.44139 0,1.70218 0,1.70218 -1.8419,0 -1.84189,0 0.054,-0.60268 z"
       id="path3153"
       inkscape:connector-curvature="0" />
    <path
       style="fill:#000000;fill-opacity:1;stroke:#000000;stroke-width:2;stroke-linecap:round;stroke-linejoin:round;stroke-miterlimit:4;stroke-opacity:1;stroke-dasharray:none"
       d="m 128.33696,105.5888 c -0.76116,-0.0338 -1.43415,-0.0668 -1.49554,-0.0733 -0.0845,-0.009 -0.1116,-0.38248 -0.1116,-1.536 l 0,-1.5242 0.4241,-0.48596 c 0.23326,-0.26728 0.6371,-0.60745 0.89742,-0.75594 l 0.47332,-0.26996 0.52041,0.14602 c 0.4642,0.13025 0.56016,0.20016 0.8883,0.64715 0.35878,0.48873 0.36788,0.51887 0.36828,1.21892 2.2e-4,0.39479 0.0264,1.16981 0.0583,1.72226 l 0.0579,1.00447 -0.34846,-0.016 c -0.19165,-0.009 -0.97123,-0.0436 -1.73239,-0.0775 z"
       id="path3155"
       inkscape:connector-curvature="0" />
    <path
       style="fill:#000000;fill-opacity:1;stroke:#000000;stroke-width:2;stroke-linecap:round;stroke-linejoin:round;stroke-miterlimit:4;stroke-opacity:1;stroke-dasharray:none"
       d="m 115.38975,104.45457 c -4.2e-4,-0.18415 -0.0261,-0.54576 -0.0571,-0.80357 l -0.0563,-0.46875 0.50351,0 0.50351,0 0,0.74776 0,0.74777 -0.27902,0.0558 c -0.55509,0.11102 -0.61377,0.0844 -0.61462,-0.27902 z"
       id="path3157"
       inkscape:connector-curvature="0" />
    <path
       style="fill:#000000;fill-opacity:1;stroke:#000000;stroke-width:2;stroke-linecap:round;stroke-linejoin:round;stroke-miterlimit:4;stroke-opacity:1;stroke-dasharray:none"
       d="m 110.47982,104.82962 c -0.0737,-0.0156 -0.2846,-0.0529 -0.46875,-0.083 l -0.33483,-0.0546 0,-0.71024 0,-0.71024 0.44001,0 0.44,0 0.0536,0.51339 c 0.0295,0.28237 0.07,0.64398 0.0901,0.80357 0.0201,0.1596 0.009,0.28552 -0.0249,0.27983 -0.0337,-0.006 -0.12161,-0.0231 -0.19527,-0.0387 z"
       id="path3159"
       inkscape:connector-curvature="0" />
    <path
       style="fill:#000000;fill-opacity:1;stroke:#000000;stroke-width:2;stroke-linecap:round;stroke-linejoin:round;stroke-miterlimit:4;stroke-opacity:1;stroke-dasharray:none"
       d="m 114.75268,93.91962 c -0.8249,-0.03657 -0.7878,0.03844 -0.7895,-1.596374 l -10e-4,-1.171499 0.64732,-0.06198 c 0.35603,-0.03409 0.73772,-0.08382 0.84821,-0.110501 l 0.2009,-0.04852 0,1.527536 c 0,1.172089 -0.026,1.523356 -0.11161,1.509568 -0.0614,-0.0099 -0.41873,-0.03159 -0.7941,-0.04823 l 0,0 z"
       id="path3161"
       inkscape:connector-curvature="0" />
    <path
       style="fill:#000000;fill-opacity:1;stroke:#000000;stroke-width:2;stroke-linecap:round;stroke-linejoin:round;stroke-miterlimit:4;stroke-opacity:1;stroke-dasharray:none"
       d="m 123.47205,94.18737 c -0.1958,-0.01996 -0.38603,-0.08352 -0.42274,-0.14124 -0.0367,-0.05773 -0.0674,-0.69759 -0.0681,-1.42192 l -0.001,-1.316965 0.58035,0 0.58036,0 -10e-4,1.272322 c -0.001,1.341577 -0.0446,1.683643 -0.21009,1.659098 -0.0556,-0.0083 -0.26138,-0.03134 -0.45717,-0.05129 l 0,0 z"
       id="path3163"
       inkscape:connector-curvature="0" />
    <path
       style="fill:#a05a2c;fill-opacity:1;stroke:#000000;stroke-width:2;stroke-linecap:round;stroke-linejoin:round;stroke-miterlimit:4;stroke-opacity:1;stroke-dasharray:none"
       d="m 106.10747,93.56171 c 10e-4,-0.03683 0.0605,-0.649554 0.13127,-1.361608 0.0708,-0.712053 0.12982,-1.337907 0.13128,-1.390786 0.002,-0.05574 0.11521,-0.07962 0.27051,-0.05683 l 0.26786,0.03931 0,1.418437 0,1.418438 -0.40179,0 c -0.22098,0 -0.40059,-0.03013 -0.39913,-0.06696 z"
       id="path3165"
       inkscape:connector-curvature="0" />
    <path
       style="fill:#a05a2c;fill-opacity:1;stroke:#000000;stroke-width:2;stroke-linecap:round;stroke-linejoin:round;stroke-miterlimit:4;stroke-opacity:1;stroke-dasharray:none"
       d="m 130.29917,87.911257 -1.07143,-1.78208 -0.40179,-0.0031 c -1.35187,-0.0104 -21.80063,-0.696857 -21.83683,-0.733051 -0.0244,-0.02438 -0.0168,-0.905558 0.0168,-1.958178 l 0.0611,-1.913853 0.49999,0.03039 c 0.275,0.01671 6.46512,0.330838 13.75582,0.698052 7.2907,0.367215 13.28266,0.697185 13.31547,0.733267 0.0565,0.06219 2.54147,5.252823 2.99143,6.248639 l 0.21181,0.46875 -3.23548,-0.0034 -3.23548,-0.0034 -1.07143,-1.782081 z"
       id="path3167"
       inkscape:connector-curvature="0" />
    <path
       style="fill:#a05a2c;fill-opacity:1;stroke:#000000;stroke-width:2;stroke-linecap:round;stroke-linejoin:round;stroke-miterlimit:4;stroke-opacity:1;stroke-dasharray:none"
       d="m 113.04674,97.919451 c -3.84152,-0.180605 -7.0097,-0.353493 -7.0404,-0.384195 -0.0307,-0.0307 -0.001,-0.671127 0.0649,-1.423167 l 0.12075,-1.367344 0.89286,0.02619 c 0.49107,0.0144 7.78348,0.245416 16.20536,0.513357 8.42187,0.267941 15.60414,0.487181 15.9606,0.487201 l 0.6481,3.6e-5 -0.0577,-0.491071 c -0.0317,-0.27009 -0.0421,-0.490478 -0.0231,-0.489752 0.019,7.26e-4 1.44087,0.443205 3.15962,0.983287 l 3.125,0.981967 -1.5625,-0.04854 c -5.08157,-0.157856 -23.50945,-0.581209 -23.54964,-0.541018 -0.041,0.04106 -0.37586,1.845651 -0.37814,2.038161 -4.5e-4,0.03683 -0.13137,0.06163 -0.29097,0.05511 -0.1596,-0.0065 -3.43324,-0.159621 -7.27475,-0.340226 l 0,0 z"
       id="path3169"
       inkscape:connector-curvature="0" />
    <path
       style="fill:#a05a2c;fill-opacity:1;stroke:#000000;stroke-width:2;stroke-linecap:round;stroke-linejoin:round;stroke-miterlimit:4;stroke-opacity:1;stroke-dasharray:none"
       d="m 68.140069,84.221733 c -6.36972,-0.447209 -11.529753,-0.841958 -11.466742,-0.877221 0.06301,-0.03526 2.148371,-0.78559 4.634133,-1.667393 l 4.519565,-1.603279 13.319291,0.180865 c 9.486328,0.128816 13.336376,0.15322 13.378661,0.0848 0.03266,-0.05284 0.472037,0.730431 0.976405,1.740593 0.504368,1.010163 0.904842,1.847972 0.889943,1.861797 -0.0149,0.01382 -2.735808,-0.05218 -6.046462,-0.146673 l -6.019373,-0.17181 -1.082282,0.716917 c -0.680783,0.450959 -1.163814,0.712761 -1.302057,0.705714 -0.120875,-0.0062 -5.431362,-0.377101 -11.801082,-0.824309 l 0,0 z"
       id="path3171"
       inkscape:connector-curvature="0" />
    <path
       style="fill:#c8b7b7;fill-opacity:1;stroke:#000000;stroke-width:2;stroke-linecap:round;stroke-linejoin:round;stroke-miterlimit:4;stroke-opacity:1;stroke-dasharray:none"
       d="M 70.346378,98.090021 C 64.404414,97.806064 59.532762,97.570025 59.520485,97.56549 c -0.01228,-0.0045 -0.02232,-0.41003 -0.02232,-0.901102 l 0,-0.892857 -0.424107,0.0012 c -0.233259,6.34e-4 -3.859375,0.08212 -8.058036,0.181069 -7.378528,0.173889 -7.971476,0.17523 -17.723214,0.04007 C 27.7437,95.91696 22.922272,95.825432 22.578522,95.79048 l -0.625,-0.06355 5.735332,-2.008928 5.735332,-2.008929 0.0013,-0.419761 0.0013,-0.419761 0.736607,0.04249 c 0.405134,0.02337 5.276786,0.186286 10.825893,0.362032 7.175182,0.227244 10.108232,0.349105 10.154883,0.421909 0.03608,0.05631 0.06621,0.192774 0.06696,0.303266 7.15e-4,0.110491 0.0315,0.200366 0.06833,0.199722 0.200342,-0.0035 18.788376,1.349634 19.103476,1.390658 l 0.375797,0.04893 0.02599,0.687043 0.02599,0.687043 2.714656,0.359002 c 2.014782,0.266447 2.734696,0.393051 2.792386,0.491071 0.20218,0.34352 1.022625,2.764655 0.933517,2.754815 -0.0557,-0.0062 -4.962881,-0.243512 -10.904845,-0.527469 z"
       id="path3173"
       inkscape:connector-curvature="0" />
    <path
       style="fill:#c8b7b7;fill-opacity:1;stroke:#000000;stroke-width:2;stroke-linecap:round;stroke-linejoin:round;stroke-miterlimit:4;stroke-opacity:1;stroke-dasharray:none"
       d="m 38.935691,119.67119 c 0.03927,-0.065 0.453098,-0.66682 0.919616,-1.33735 l 0.848214,-1.21916 6.888116,-4.06486 6.888115,-4.06486 8.930172,0.0228 8.93017,0.0228 -5.535239,2.12841 -5.535239,2.12841 -6.979476,1.07224 -6.979476,1.07224 -4.17537,2.17881 c -2.296454,1.19835 -4.196888,2.17882 -4.223187,2.17882 -0.0263,0 -0.01569,-0.0532 0.02358,-0.1182 z"
       id="path3179"
       inkscape:connector-curvature="0" />
    <path
       style="fill:#c8b7b7;fill-opacity:1;stroke:#000000;stroke-width:2;stroke-linecap:round;stroke-linejoin:round;stroke-miterlimit:4;stroke-opacity:1;stroke-dasharray:none"
       d="m 9.85211,100.88165 9.559e-4,-0.958333 5.1552941,-1.536705 5.155294,-1.536704 10.223214,0.172147 c 5.622768,0.09468 10.49442,0.173475 10.825893,0.175097 l 0.602679,0.0029 0,0.803572 0,0.803571 -0.602679,-3.75e-4 c -0.331473,-2.05e-4 -4.745894,-0.04242 -9.809822,-0.0938 l -9.207145,-0.09342 -2.57857,0.4479 c -2.26691,0.393765 -7.234438,1.16804 -7.494908,1.16821 -0.0522,3e-5 -0.584567,0.361 -1.183036,0.80215 l -1.0881259,0.80208 9.559e-4,-0.95833 z"
       id="path3181"
       inkscape:connector-curvature="0"
       sodipodi:nodetypes="ccccsccccsscscsccc" />
    <path
       style="fill:#c8b7b7;fill-opacity:1;stroke:#000000;stroke-width:0.26785713;stroke-linecap:round;stroke-linejoin:round;stroke-miterlimit:4;stroke-opacity:1;stroke-dasharray:none"
       d=""
       id="path3183"
       inkscape:connector-curvature="0" />
    <path
       style="fill:#c8b7b7;fill-opacity:1;stroke:#000000;stroke-width:0.26785713;stroke-linecap:round;stroke-linejoin:round;stroke-miterlimit:4;stroke-opacity:1;stroke-dasharray:none"
       d=""
       id="path3185"
       inkscape:connector-curvature="0" />
    <path
       style="fill:#c8b7b7;fill-opacity:1;stroke:#000000;stroke-width:2;stroke-linecap:round;stroke-linejoin:round;stroke-miterlimit:4;stroke-opacity:1;stroke-dasharray:none"
       d="m 14.36189,126.91434 c -0.06585,-0.90849 -0.09344,-2.1734 -0.06131,-2.81092 l 0.05842,-1.15912 7.5,-0.556 c 4.125,-0.3058 9.46875,-0.78119 11.875,-1.05642 3.863051,-0.44185 4.412876,-0.54415 4.698693,-0.87416 0.314192,-0.36277 0.321173,-0.36326 0.237842,-0.0166 -0.04722,0.19643 -0.136862,0.83929 -0.199207,1.42857 -0.06234,0.58929 -0.15921,1.33784 -0.215259,1.66344 l -0.101901,0.59201 5.066701,-2.53539 5.066702,-2.53538 5.982143,-0.77274 5.982143,-0.77273 7.678571,-2.24839 7.678572,-2.24839 3.610952,-0.38261 3.610953,-0.38261 1.556004,-1.92968 1.556005,-1.92967 8.981239,0 8.981238,0 1.74466,0.69154 1.74467,0.69154 19.82143,0.29335 c 10.90178,0.16134 20.88581,0.3405 22.18672,0.39814 l 2.3653,0.10479 2.85419,2.39781 2.85418,2.39781 5.86841,0.73978 5.8684,0.73979 0.31177,3.1388 c 0.17146,1.72634 0.35012,3.30585 0.39701,3.51002 0.0831,0.36204 -0.18812,0.33685 -10.95322,-1.01707 l -11.03848,-1.38831 -15.44643,0.60663 -15.44642,0.60663 -11.33929,1.43368 c -6.236613,0.78852 -11.575686,1.45536 -11.864614,1.48187 l -0.525324,0.0482 -0.429359,-2.14286 c -0.236146,-1.17857 -0.450942,-2.16547 -0.477325,-2.19312 -0.02638,-0.0276 -5.997257,1.40094 -13.268614,3.17465 l -13.220646,3.22491 -18.544563,0.26321 c -13.32392,0.18911 -20.278917,0.36225 -24.705275,0.61501 -3.388393,0.1935 -6.615268,0.35405 -7.170834,0.35679 l -1.010121,0.005 -0.119725,-1.65178 z"
       id="path3187"
       inkscape:connector-curvature="0" />
    <path
       style="fill:none;stroke:#000000;stroke-width:1px;stroke-linecap:butt;stroke-linejoin:miter;stroke-opacity:1"
       d="m 100.06824,39.53206 0,-11.806158"
       id="path3957"
       inkscape:connector-curvature="0" />
    <path
       style="fill:none;stroke:#000000;stroke-width:1px;stroke-linecap:butt;stroke-linejoin:miter;stroke-opacity:1"
       d="m 96.848375,30.377552 6.376585,0"
       id="path3959"
       inkscape:connector-curvature="0" />
  </g>
</svg>
