<?xml version="1.0" encoding="UTF-8" standalone="no"?>
<!-- Created with Inkscape (http://www.inkscape.org/) -->

<svg
   xmlns:dc="http://purl.org/dc/elements/1.1/"
   xmlns:cc="http://creativecommons.org/ns#"
   xmlns:rdf="http://www.w3.org/1999/02/22-rdf-syntax-ns#"
   xmlns:svg="http://www.w3.org/2000/svg"
   xmlns="http://www.w3.org/2000/svg"
   xmlns:sodipodi="http://sodipodi.sourceforge.net/DTD/sodipodi-0.dtd"
   xmlns:inkscape="http://www.inkscape.org/namespaces/inkscape"
   width="177.16534"
   height="177.16534"
   id="svg2"
   version="1.1"
   inkscape:version="0.48.5 r10040"
   sodipodi:docname="poporo.svg">
  <title
     id="title3882">Poporo quimbaya</title>
  <defs
     id="defs4" />
  <sodipodi:namedview
     id="base"
     pagecolor="#ffffff"
     bordercolor="#666666"
     borderopacity="1.0"
     inkscape:pageopacity="0.0"
     inkscape:pageshadow="2"
     inkscape:zoom="0.49497475"
     inkscape:cx="-16.528787"
     inkscape:cy="178.17324"
     inkscape:document-units="px"
     inkscape:current-layer="layer2"
     showgrid="false"
     units="cm"
     inkscape:window-width="1440"
     inkscape:window-height="789"
     inkscape:window-x="0"
     inkscape:window-y="0"
     inkscape:window-maximized="1" />
  <metadata
     id="metadata7">
    <rdf:RDF>
      <cc:Work
         rdf:about="">
        <dc:format>image/svg+xml</dc:format>
        <dc:type
           rdf:resource="http://purl.org/dc/dcmitype/StillImage" />
        <dc:title>Poporo quimbaya</dc:title>
        <dc:creator>
          <cc:Agent>
            <dc:title>AngocA</dc:title>
          </cc:Agent>
        </dc:creator>
        <dc:rights>
          <cc:Agent>
            <dc:title>CC-BY</dc:title>
          </cc:Agent>
        </dc:rights>
      </cc:Work>
    </rdf:RDF>
  </metadata>
  <path
     sodipodi:type="arc"
     style="opacity:1;fill:#ffcc00;fill-opacity:1;stroke:#000000;stroke-width:2.95866805999999993;stroke-miterlimit:4;stroke-dasharray:none;stroke-opacity:1"
     id="path3068"
     sodipodi:cx="103.03556"
     sodipodi:cy="16.677359"
     sodipodi:rx="15.404826"
     sodipodi:ry="14.015866"
     d="m 118.44039,16.677359 a 15.404826,14.015866 0 1 1 -30.809656,0 15.404826,14.015866 0 1 1 30.809656,0 z"
     transform="matrix(0.95901639,0,0,1.0720721,3.3388854,-0.69689555)" />
  <g
     inkscape:groupmode="layer"
     id="layer2"
     inkscape:label="Poporo" />
  <path
     style="fill:none;stroke:#000000;stroke-width:3;stroke-linecap:butt;stroke-linejoin:miter;stroke-miterlimit:4;stroke-opacity:1;stroke-dasharray:none"
     d="m 118.56665,48.623429 c -4.67236,3.804736 -8.52303,8.886626 -8.47541,22.476841 0.0601,17.149231 8.12981,21.343263 12.21504,23.176539 3.16618,1.420851 13.49061,8.591921 15.40595,27.648631 0.78544,7.81471 -4.09336,25.99658 -18.04281,32.65407 -10.95368,5.22774 -30.337691,4.5116 -40.943081,-0.55713 C 62.126757,146.08879 57.449507,131.02234 58.336309,121.85949 60.133895,103.286 70.838689,96.15555 74.246212,95.342988 77.581141,94.547737 86.620581,88.678957 86.873119,71.604403 87.085998,57.211304 82.453702,51.906428 77.402939,47.613281"
     id="path3055"
     inkscape:connector-curvature="0"
     sodipodi:nodetypes="cssssssssc" />
  <path
     style="fill:none;stroke:#000000;stroke-width:3;stroke-linecap:butt;stroke-linejoin:miter;stroke-opacity:1;stroke-miterlimit:4;stroke-dasharray:none"
     d="m 81.31728,33.218606 c 0,0 -6.313453,2.77792 -6.313453,8.333759 0,5.555839 3.535533,6.81853 3.535533,6.81853 0,0 5.556017,3.783314 19.192899,3.788072 13.394051,0.0047 17.299791,-0.712035 21.465741,-4.04061 1.95713,-3.605662 1.95158,-3.209119 2.52538,-7.323607 -1.03962,-5.527615 -2.2252,-4.011236 -2.77792,-5.303301"
     id="path3057"
     inkscape:connector-curvature="0"
     sodipodi:nodetypes="cscsccc" />
  <path
     sodipodi:type="arc"
     style="opacity:1;fill:#ffcc00;fill-opacity:1;stroke:#000000;stroke-width:2.66821303999999992;stroke-miterlimit:4;stroke-dasharray:none;stroke-opacity:1"
     id="path3061"
     sodipodi:cx="125.13264"
     sodipodi:cy="23.622158"
     sodipodi:rx="12.753176"
     sodipodi:ry="12.626906"
     d="m 137.88581,23.622158 a 12.753176,12.626906 0 1 1 -25.50635,0 12.753176,12.626906 0 1 1 25.50635,0 z"
     transform="matrix(1.1089109,0,0,1.14,-15.269805,-5.5799455)" />
  <path
     sodipodi:type="arc"
     style="opacity:1;fill:#ffcc00;fill-opacity:1;stroke:#000000;stroke-width:2.71746483999999988;stroke-miterlimit:4;stroke-dasharray:none;stroke-opacity:1"
     id="path3063"
     sodipodi:cx="68.942909"
     sodipodi:cy="20.465431"
     sodipodi:rx="12.121831"
     sodipodi:ry="14.268405"
     d="m 81.06474,20.465431 a 12.121831,14.268405 0 1 1 -24.243662,0 12.121831,14.268405 0 1 1 24.243662,0 z"
     transform="matrix(1.1770834,0,0,1.0353982,-5.5163792,-0.21936376)" />
  <path
     style="fill:none;stroke:#000000;stroke-width:3;stroke-linecap:butt;stroke-linejoin:miter;stroke-opacity:1;stroke-miterlimit:4;stroke-dasharray:none"
     d="m 65.154839,103.42421 c 0,0 11.111678,13.8896 32.324882,13.8896 21.213199,0 33.840109,-13.63706 33.840109,-13.63706"
     id="path3074"
     inkscape:connector-curvature="0" />
  <path
     style="fill:none;stroke:#000000;stroke-width:3;stroke-linecap:butt;stroke-linejoin:miter;stroke-opacity:1;stroke-miterlimit:4;stroke-dasharray:none"
     d="m 76.519055,153.17422 c 0,0 -4.293149,4.29315 -4.293149,8.33376 0,4.04061 6.818531,11.86929 23.486048,12.37437 16.667516,0.50507 25.758886,-5.05076 26.263966,-12.12183 0.26989,-3.77844 -3.53553,-6.31346 -3.53553,-6.31346"
     id="path3076"
     inkscape:connector-curvature="0"
     sodipodi:nodetypes="csssc" />
  <path
     sodipodi:type="arc"
     style="opacity:1;fill:#ffcc00;fill-opacity:1;stroke:#000000;stroke-opacity:1;stroke-width:2.88127120000000003;stroke-miterlimit:4;stroke-dasharray:none"
     id="path3059"
     sodipodi:cx="94.828072"
     sodipodi:cy="29.556803"
     sodipodi:rx="15.278557"
     sodipodi:ry="13.51079"
     d="m 110.10663,29.556803 a 15.278557,13.51079 0 1 1 -30.557115,0 15.278557,13.51079 0 1 1 30.557115,0 z"
     transform="matrix(1,0,0,1.0841122,1.2626907,-3.3699698)" />
  <path
     style="fill:#ffcc00;fill-opacity:1;stroke:#000000;stroke-width:0.37880722;stroke-linecap:round;stroke-linejoin:round;stroke-miterlimit:4;stroke-opacity:1;stroke-dasharray:none"
     d="M 95.175964,50.510714 C 88.981348,50.31071 83.669998,49.210293 80.023676,47.37143 78.530457,46.618391 77.90724,46.086635 77.397891,45.130998 c -1.126473,-2.113479 -1.042189,-4.881919 0.206837,-6.793916 0.687266,-1.052061 1.007135,-1.302741 1.994766,-1.563292 0.476368,-0.125672 1.035405,-0.295613 1.242305,-0.377646 0.206899,-0.08203 0.391874,-0.102989 0.411055,-0.04657 0.155323,0.456883 1.531526,2.294035 2.409811,3.216963 1.401545,1.472784 2.901024,2.586902 4.628165,3.438742 2.858345,1.40976 5.213322,1.915466 8.400363,1.80389 3.535257,-0.123768 6.294217,-1.008194 9.164527,-2.937823 1.27873,-0.859652 3.01726,-2.523978 3.94613,-3.777694 0.8108,-1.094349 1.84693,-3.081424 2.29426,-4.399906 l 0.33751,-0.994777 0.79808,0.712109 c 0.98536,0.879221 2.16553,1.668692 3.4178,2.286328 0.70757,0.348982 0.99772,0.567859 1.12051,0.845265 0.0911,0.205886 0.44482,0.57487 0.78597,0.819964 0.74497,0.535202 0.92631,0.861117 1.29861,2.33391 0.26826,1.061257 0.27518,1.192712 0.117,2.224752 -0.2468,1.610289 -0.36023,1.954399 -1.19429,3.62314 l -0.7578,1.516136 -0.99048,0.663537 c -2.21992,1.487146 -4.58632,2.170014 -8.91048,2.571286 -1.97077,0.182883 -9.874581,0.314375 -12.942576,0.215319 l 0,0 z"
     id="path3857"
     inkscape:connector-curvature="0" />
  <path
     style="fill:#ffcc00;fill-opacity:1;stroke:#000000;stroke-width:0.37880722;stroke-linecap:round;stroke-linejoin:round;stroke-miterlimit:4;stroke-opacity:1;stroke-dasharray:none"
     d="m 93.660735,115.60288 c -9.171276,-0.8521 -17.557709,-4.37195 -24.243661,-10.17522 -0.659756,-0.57265 -1.507312,-1.35521 -1.883458,-1.73901 l -0.683902,-0.69782 0.700241,-0.79552 c 2.52954,-2.873748 5.003913,-4.68953 7.384669,-5.419133 3.903988,-1.196411 7.797419,-4.974379 10.200666,-9.898159 2.266655,-4.643929 3.25331,-9.578452 3.256754,-16.287888 0.0039,-7.593918 -1.302385,-13.260166 -4.063801,-17.627521 -0.277648,-0.439119 -0.488696,-0.814517 -0.468995,-0.834219 0.0197,-0.0197 0.315385,0.04577 0.657074,0.145484 1.971334,0.575311 5.736827,1.104791 9.586355,1.347974 4.371146,0.276135 13.780633,-0.03055 17.267293,-0.562796 0.60767,-0.09276 1.10486,-0.154189 1.10486,-0.136505 0,0.01769 -0.33559,0.676092 -0.74575,1.463128 -2.18075,4.184556 -3.16859,9.29706 -3.16859,16.398818 0,9.485273 2.14431,16.048131 6.74649,20.648256 1.77867,1.77788 2.83449,2.512581 5.71919,3.979767 1.13519,0.577364 2.54259,1.411394 3.15673,1.870682 1.72304,1.288584 3.89397,3.548902 5.18931,5.402982 l 0.28121,0.40251 -0.60278,0.5621 c -4.13991,3.86056 -10.42561,7.51993 -16.44954,9.57651 -2.91145,0.99397 -6.74182,1.85924 -9.97526,2.25337 -1.45799,0.17772 -7.483571,0.25986 -8.965105,0.12221 l 0,0 z"
     id="path3859"
     inkscape:connector-curvature="0" />
  <path
     style="fill:#ffcc00;fill-opacity:1;stroke:#000000;stroke-width:0.37880722;stroke-linecap:round;stroke-linejoin:round;stroke-miterlimit:4;stroke-opacity:1;stroke-dasharray:none"
     d="m 96.943731,156.52021 c -8.118917,-0.48934 -14.762549,-2.21894 -19.959157,-5.19615 -6.330578,-3.62687 -10.98886,-8.43489 -13.965951,-14.41488 -2.671697,-5.36655 -3.669529,-10.82999 -2.956951,-16.19023 0.472655,-3.55546 1.082706,-6.15542 2.139265,-9.1173 0.531384,-1.48963 1.787162,-4.21178 2.447139,-5.30465 l 0.397737,-0.65862 1.207045,1.16678 c 5.122025,4.95118 12.504448,8.89981 20.084271,10.74244 12.003561,2.91804 25.176661,0.95257 36.313811,-5.41814 2.79098,-1.5965 6.46475,-4.20879 8.01097,-5.69631 0.3149,-0.30295 0.61269,-0.55082 0.66176,-0.55082 0.10739,0 1.20064,2.15711 1.66834,3.29183 1.45866,3.53898 2.38143,7.08401 2.974,11.42533 0.4606,3.37446 0.2128,6.55433 -0.82719,10.61496 -1.94704,7.60216 -5.81079,14.17721 -10.85784,18.47708 -4.37289,3.72551 -10.10393,5.84003 -17.96515,6.62838 -2.33351,0.23402 -7.116651,0.33624 -9.372099,0.2003 l 0,0 z"
     id="path3861"
     inkscape:connector-curvature="0" />
</svg>
