<?xml version="1.0" encoding="UTF-8" standalone="no"?>
<!-- Created with Inkscape (http://www.inkscape.org/) -->

<svg
   xmlns:dc="http://purl.org/dc/elements/1.1/"
   xmlns:cc="http://creativecommons.org/ns#"
   xmlns:rdf="http://www.w3.org/1999/02/22-rdf-syntax-ns#"
   xmlns:svg="http://www.w3.org/2000/svg"
   xmlns="http://www.w3.org/2000/svg"
   xmlns:sodipodi="http://sodipodi.sourceforge.net/DTD/sodipodi-0.dtd"
   xmlns:inkscape="http://www.inkscape.org/namespaces/inkscape"
   width="357.72992"
   height="60.28775"
   id="svg2"
   version="1.1"
   inkscape:version="0.48.5 r10040"
   sodipodi:docname="New document 1">
  <defs
     id="defs4" />
  <sodipodi:namedview
     id="base"
     pagecolor="#ffffff"
     bordercolor="#666666"
     borderopacity="1.0"
     inkscape:pageopacity="0.0"
     inkscape:pageshadow="2"
     inkscape:zoom="2.67"
     inkscape:cx="196.88017"
     inkscape:cy="10.544582"
     inkscape:document-units="px"
     inkscape:current-layer="layer1"
     showgrid="false"
     fit-margin-top="0"
     fit-margin-left="0"
     fit-margin-right="0"
     fit-margin-bottom="0"
     inkscape:window-width="1440"
     inkscape:window-height="785"
     inkscape:window-x="0"
     inkscape:window-y="1"
     inkscape:window-maximized="1" />
  <metadata
     id="metadata7">
    <rdf:RDF>
      <cc:Work
         rdf:about="">
        <dc:format>image/svg+xml</dc:format>
        <dc:type
           rdf:resource="http://purl.org/dc/dcmitype/StillImage" />
        <dc:title></dc:title>
      </cc:Work>
    </rdf:RDF>
  </metadata>
  <g
     inkscape:label="Layer 1"
     inkscape:groupmode="layer"
     id="layer1"
     transform="translate(-23.843514,-843.36015)">
    <rect
       style="fill:#ff0000;fill-opacity:1;stroke:#000000;stroke-width:2.00406098;stroke-linecap:round;stroke-linejoin:bevel;stroke-miterlimit:4;stroke-opacity:1;stroke-dasharray:none;stroke-dashoffset:0"
       id="rect3059"
       width="355.72586"
       height="51.42857"
       x="24.845545"
       y="844.36218" />
    <path
       sodipodi:type="arc"
       style="fill:#000000;stroke:#000000;stroke-width:2;stroke-linecap:round;stroke-linejoin:bevel;stroke-miterlimit:4;stroke-opacity:1;stroke-dasharray:none;stroke-dashoffset:0"
       id="path3051"
       sodipodi:cx="82"
       sodipodi:cy="141.71428"
       sodipodi:rx="10"
       sodipodi:ry="9.7142859"
       d="m 92,141.71428 c 0,5.36505 -4.477153,9.71429 -10,9.71429 -5.522847,0 -10,-4.34924 -10,-9.71429 0,-5.36505 4.477153,-9.71429 10,-9.71429 5.522847,0 10,4.34924 10,9.71429 z"
       transform="matrix(0.99867455,0,0,1.0280473,0.96582976,746.10176)" />
    <path
       sodipodi:type="arc"
       style="fill:#000000;fill-opacity:1;stroke:#000000;stroke-width:2;stroke-linecap:round;stroke-linejoin:bevel;stroke-miterlimit:4;stroke-opacity:1;stroke-dasharray:none;stroke-dashoffset:0"
       id="path3053"
       sodipodi:cx="210.57143"
       sodipodi:cy="140.28572"
       sodipodi:rx="10"
       sodipodi:ry="10"
       d="m 220.57143,140.28572 c 0,5.52285 -4.47716,10 -10,10 -5.52285,0 -10,-4.47715 -10,-10 0,-5.52285 4.47715,-10 10,-10 5.52284,0 10,4.47715 10,10 z"
       transform="translate(6.8571429,752.36218)" />
    <path
       sodipodi:type="arc"
       style="fill:#000000;fill-opacity:1;stroke:#000000;stroke-width:2;stroke-linecap:round;stroke-linejoin:bevel;stroke-miterlimit:4;stroke-opacity:1;stroke-dasharray:none;stroke-dashoffset:0"
       id="path3057"
       sodipodi:cx="327.71429"
       sodipodi:cy="141.42857"
       sodipodi:rx="10.571428"
       sodipodi:ry="10"
       d="m 338.28572,141.42857 c 0,5.52285 -4.73299,10 -10.57143,10 -5.83843,0 -10.57142,-4.47715 -10.57142,-10 0,-5.52284 4.73299,-10 10.57142,-10 5.83844,0 10.57143,4.47716 10.57143,10 z"
       transform="matrix(0.94830833,0,0,1.0024974,16.940099,749.72327)" />
    <rect
       style="fill:#000000;fill-opacity:1;stroke:#000000;stroke-width:2;stroke-linecap:round;stroke-linejoin:bevel;stroke-miterlimit:4;stroke-opacity:1;stroke-dasharray:none;stroke-dashoffset:0"
       id="rect3061"
       width="126.28571"
       height="19.428572"
       x="28.768324"
       y="848.16528" />
    <path
       style="fill:#000000;fill-opacity:1;stroke:#000000;stroke-width:2;stroke-linecap:round;stroke-linejoin:bevel;stroke-miterlimit:4;stroke-opacity:1;stroke-dashoffset:0"
       d="m 189.71428,848.36218 181.71428,0 c 6.9781,12.46441 5.5091,24.76622 0,36.57143 l -8.03803,0.10941 L 336,866.6479 l -146.28572,0 z"
       id="rect3063"
       inkscape:connector-curvature="0"
       sodipodi:nodetypes="ccccccc" />
    <rect
       style="fill:#999999;fill-opacity:1;stroke:#000000;stroke-width:1.95960093;stroke-linecap:round;stroke-linejoin:bevel;stroke-miterlimit:4;stroke-opacity:1;stroke-dasharray:none;stroke-dashoffset:0"
       id="rect3066"
       width="27.428572"
       height="51.017616"
       x="158.85715"
       y="844.51831" />
  </g>
</svg>
